<?xml version="1.0" encoding="UTF-8" standalone="no"?>
<!-- Created with Inkscape (http://www.inkscape.org/) -->

<svg
   xmlns:dc="http://purl.org/dc/elements/1.1/"
   xmlns:cc="http://creativecommons.org/ns#"
   xmlns:rdf="http://www.w3.org/1999/02/22-rdf-syntax-ns#"
   xmlns:svg="http://www.w3.org/2000/svg"
   xmlns="http://www.w3.org/2000/svg"
   xmlns:sodipodi="http://sodipodi.sourceforge.net/DTD/sodipodi-0.dtd"
   xmlns:inkscape="http://www.inkscape.org/namespaces/inkscape"
   width="512mm"
   height="512mm"
   viewBox="0 0 512 512"
   version="1.1"
   id="svg1128"
   inkscape:version="0.92.3 (2405546, 2018-03-11)"
   sodipodi:docname="radio-tv.svg">
  <defs
     id="defs1122" />
  <sodipodi:namedview
     id="base"
     pagecolor="#ffffff"
     bordercolor="#666666"
     borderopacity="1.0"
     inkscape:pageopacity="0.0"
     inkscape:pageshadow="2"
     inkscape:zoom="0.36"
     inkscape:cx="396.85039"
     inkscape:cy="1116.8154"
     inkscape:document-units="mm"
     inkscape:current-layer="layer1"
     showgrid="false"
     inkscape:window-width="1853"
     inkscape:window-height="1025"
     inkscape:window-x="67"
     inkscape:window-y="27"
     inkscape:window-maximized="1" />
  <metadata
     id="metadata1125">
    <rdf:RDF>
      <cc:Work
         rdf:about="">
        <dc:format>image/svg+xml</dc:format>
        <dc:type
           rdf:resource="http://purl.org/dc/dcmitype/StillImage" />
        <dc:title></dc:title>
      </cc:Work>
    </rdf:RDF>
  </metadata>
  <g
     inkscape:label="Capa 1"
     inkscape:groupmode="layer"
     id="layer1"
     transform="translate(0,215)">
    <g
       transform="matrix(3.756191,0,0,-3.756191,-2468.8901,4869.8741)"
       id="g3655">
      <g
         transform="translate(730.0063,1342.0063)"
         id="g368">
        <path
           inkscape:connector-curvature="0"
           id="path370"
           style="fill:#e0e0e0;fill-opacity:1;fill-rule:nonzero;stroke:none"
           d="m 0,0 6.252,-3.111 c 0.989,-0.493 0.989,-1.298 0,-1.791 L 0,-8.013 -3.111,-14.264 c -0.492,-0.99 -1.298,-0.99 -1.791,0 l -3.111,6.251 -6.251,3.111 c -0.99,0.493 -0.99,1.298 0,1.791 L -8.013,0 -4.902,6.252 c 0.493,0.989 1.299,0.989 1.791,0 z" />
      </g>
      <g
         transform="translate(768,1251)"
         id="g372">
        <path
           inkscape:connector-curvature="0"
           id="path374"
           style="fill:#e0e0e0;fill-opacity:1;fill-rule:nonzero;stroke:none"
           d="m 0,0 c 0,-2.209 -1.791,-4 -4,-4 h -48 c -2.209,0 -4,1.791 -4,4 v 40 c 0,2.209 1.791,4 4,4 h 48 c 2.209,0 4,-1.791 4,-4 z" />
      </g>
      <g
         transform="translate(778,1287)"
         id="g376">
        <path
           inkscape:connector-curvature="0"
           id="path378"
           style="fill:#ffb612;fill-opacity:1;fill-rule:nonzero;stroke:none"
           d="m 0,0 h -4 v -16 h 4 c 2.206,0 4,1.794 4,4 v 8 C 4,-1.794 2.206,0 0,0" />
      </g>
      <g
         transform="translate(778,1265)"
         id="g380">
        <path
           inkscape:connector-curvature="0"
           id="path382"
           style="fill:#ffb612;fill-opacity:1;fill-rule:nonzero;stroke:none"
           d="m 0,0 h -4 v -16 h 4 c 2.206,0 4,1.794 4,4 v 8 C 4,-1.794 2.206,0 0,0" />
      </g>
      <path
         inkscape:connector-curvature="0"
         id="path384"
         style="fill:#ffb612;fill-opacity:1;fill-rule:nonzero;stroke:none"
         d="m 689,1249 h 4 v 8 h -4 z" />
      <path
         inkscape:connector-curvature="0"
         id="path386"
         style="fill:#ffb612;fill-opacity:1;fill-rule:nonzero;stroke:none"
         d="m 697,1249 h 4 v 8 h -4 z" />
      <path
         inkscape:connector-curvature="0"
         id="path388"
         style="fill:#ffb612;fill-opacity:1;fill-rule:nonzero;stroke:none"
         d="m 689,1285 h 4 v 8 h -4 z" />
      <path
         inkscape:connector-curvature="0"
         id="path390"
         style="fill:#ffb612;fill-opacity:1;fill-rule:nonzero;stroke:none"
         d="m 689,1267 h 4 v 8 h -4 z" />
      <path
         inkscape:connector-curvature="0"
         id="path392"
         style="fill:#ffb612;fill-opacity:1;fill-rule:nonzero;stroke:none"
         d="m 697,1267 h 4 v 8 h -4 z" />
      <path
         inkscape:connector-curvature="0"
         id="path394"
         style="fill:#ffb612;fill-opacity:1;fill-rule:nonzero;stroke:none"
         d="m 697,1285 h 4 v 8 h -4 z" />
      <g
         transform="translate(774,1241)"
         id="g396">
        <path
           inkscape:connector-curvature="0"
           id="path398"
           style="fill:#262626;fill-opacity:1;fill-rule:nonzero;stroke:none"
           d="m 0,0 c 0,-3.309 -2.691,-6 -6,-6 h -3 -28 -22 -28 -3 c -3.309,0 -6,2.691 -6,6 v 54 c 0,3.309 2.691,6 6,6 h 24 36 24 c 3.309,0 6,-2.691 6,-6 z m -13,-14 c 0,-1.103 -0.897,-2 -2,-2 h -16 c -1.103,0 -2,0.897 -2,2 v 4 h 20 z m -50,0 c 0,-1.103 -0.897,-2 -2,-2 h -16 c -1.103,0 -2,0.897 -2,2 v 4 h 20 z m 1,84 c 0,1.103 0.897,2 2,2 h 24 c 1.103,0 2,-0.897 2,-2 v -6 h -28 z m 56,-6 h -24 v 6 c 0,3.145 -2.433,5.727 -5.515,5.975 l 15.998,17.683 c 0.742,0.819 0.678,2.084 -0.141,2.825 -0.82,0.742 -2.083,0.678 -2.825,-0.141 L -40.888,76 h -14.224 l -18.405,20.342 c -0.742,0.819 -2.005,0.882 -2.825,0.141 -0.819,-0.741 -0.883,-2.006 -0.141,-2.825 L -60.485,75.975 C -63.567,75.727 -66,73.145 -66,70 v -6 h -24 c -5.514,0 -10,-4.486 -10,-10 V 0 c 0,-5.514 4.486,-10 10,-10 h 3 v -4 c 0,-3.309 2.691,-6 6,-6 h 16 c 3.309,0 6,2.691 6,6 v 4 h 22 v -4 c 0,-3.309 2.691,-6 6,-6 h 16 c 3.309,0 6,2.691 6,6 v 4 h 3 c 5.514,0 10,4.486 10,10 v 54 c 0,5.514 -4.486,10 -10,10" />
      </g>
      <g
         transform="translate(753,1288.5)"
         id="g400">
        <path
           inkscape:connector-curvature="0"
           id="path402"
           style="fill:#262626;fill-opacity:1;fill-rule:nonzero;stroke:none"
           d="M 0,0 C -2.481,0 -4.5,-2.019 -4.5,-4.5 -4.5,-6.981 -2.481,-9 0,-9 2.481,-9 4.5,-6.981 4.5,-4.5 4.5,-2.019 2.481,0 0,0" />
      </g>
      <g
         transform="translate(740,1288.5)"
         id="g404">
        <path
           inkscape:connector-curvature="0"
           id="path406"
           style="fill:#262626;fill-opacity:1;fill-rule:nonzero;stroke:none"
           d="M 0,0 C -2.481,0 -4.5,-2.019 -4.5,-4.5 -4.5,-6.981 -2.481,-9 0,-9 2.481,-9 4.5,-6.981 4.5,-4.5 4.5,-2.019 2.481,0 0,0" />
      </g>
      <g
         transform="translate(727,1288.5)"
         id="g408">
        <path
           inkscape:connector-curvature="0"
           id="path410"
           style="fill:#262626;fill-opacity:1;fill-rule:nonzero;stroke:none"
           d="M 0,0 C -2.481,0 -4.5,-2.019 -4.5,-4.5 -4.5,-6.981 -2.481,-9 0,-9 2.481,-9 4.5,-6.981 4.5,-4.5 4.5,-2.019 2.481,0 0,0" />
      </g>
      <g
         transform="translate(753,1275.5)"
         id="g412">
        <path
           inkscape:connector-curvature="0"
           id="path414"
           style="fill:#262626;fill-opacity:1;fill-rule:nonzero;stroke:none"
           d="M 0,0 C -2.481,0 -4.5,-2.019 -4.5,-4.5 -4.5,-6.981 -2.481,-9 0,-9 2.481,-9 4.5,-6.981 4.5,-4.5 4.5,-2.019 2.481,0 0,0" />
      </g>
      <g
         transform="translate(740,1275.5)"
         id="g416">
        <path
           inkscape:connector-curvature="0"
           id="path418"
           style="fill:#262626;fill-opacity:1;fill-rule:nonzero;stroke:none"
           d="M 0,0 C -2.481,0 -4.5,-2.019 -4.5,-4.5 -4.5,-6.981 -2.481,-9 0,-9 2.481,-9 4.5,-6.981 4.5,-4.5 4.5,-2.019 2.481,0 0,0" />
      </g>
      <g
         transform="translate(727,1275.5)"
         id="g420">
        <path
           inkscape:connector-curvature="0"
           id="path422"
           style="fill:#262626;fill-opacity:1;fill-rule:nonzero;stroke:none"
           d="M 0,0 C -2.481,0 -4.5,-2.019 -4.5,-4.5 -4.5,-6.981 -2.481,-9 0,-9 2.481,-9 4.5,-6.981 4.5,-4.5 4.5,-2.019 2.481,0 0,0" />
      </g>
      <g
         transform="translate(753,1262.5)"
         id="g424">
        <path
           inkscape:connector-curvature="0"
           id="path426"
           style="fill:#262626;fill-opacity:1;fill-rule:nonzero;stroke:none"
           d="M 0,0 C -2.481,0 -4.5,-2.019 -4.5,-4.5 -4.5,-6.981 -2.481,-9 0,-9 2.481,-9 4.5,-6.981 4.5,-4.5 4.5,-2.019 2.481,0 0,0" />
      </g>
      <g
         transform="translate(740,1262.5)"
         id="g428">
        <path
           inkscape:connector-curvature="0"
           id="path430"
           style="fill:#262626;fill-opacity:1;fill-rule:nonzero;stroke:none"
           d="M 0,0 C -2.481,0 -4.5,-2.019 -4.5,-4.5 -4.5,-6.981 -2.481,-9 0,-9 2.481,-9 4.5,-6.981 4.5,-4.5 4.5,-2.019 2.481,0 0,0" />
      </g>
      <g
         transform="translate(727,1262.5)"
         id="g432">
        <path
           inkscape:connector-curvature="0"
           id="path434"
           style="fill:#262626;fill-opacity:1;fill-rule:nonzero;stroke:none"
           d="M 0,0 C -2.481,0 -4.5,-2.019 -4.5,-4.5 -4.5,-6.981 -2.481,-9 0,-9 2.481,-9 4.5,-6.981 4.5,-4.5 4.5,-2.019 2.481,0 0,0" />
      </g>
      <g
         transform="translate(686,1287)"
         id="g436">
        <path
           inkscape:connector-curvature="0"
           id="path438"
           style="fill:#262626;fill-opacity:1;fill-rule:nonzero;stroke:none"
           d="M 0,0 V 4 H 18 L 18.003,0 Z M 18,8 H 0 C -2.206,8 -4,6.206 -4,4 V 0 c 0,-2.206 1.794,-4 4,-4 h 18 c 2.206,0 4,1.794 4,4 v 4 c 0,2.206 -1.794,4 -4,4" />
      </g>
      <g
         transform="translate(686,1251)"
         id="g440">
        <path
           inkscape:connector-curvature="0"
           id="path442"
           style="fill:#262626;fill-opacity:1;fill-rule:nonzero;stroke:none"
           d="M 0,0 V 4 H 18 L 18.003,0 Z M 18,8 H 0 C -2.206,8 -4,6.206 -4,4 V 0 c 0,-2.206 1.794,-4 4,-4 h 18 c 2.206,0 4,1.794 4,4 v 4 c 0,2.206 -1.794,4 -4,4" />
      </g>
      <g
         transform="translate(686,1269)"
         id="g444">
        <path
           inkscape:connector-curvature="0"
           id="path446"
           style="fill:#262626;fill-opacity:1;fill-rule:nonzero;stroke:none"
           d="M 0,0 V 4 H 18 L 18.003,0 Z M 18,8 H 0 C -2.206,8 -4,6.206 -4,4 V 0 c 0,-2.206 1.794,-4 4,-4 h 18 c 2.206,0 4,1.794 4,4 v 4 c 0,2.206 -1.794,4 -4,4" />
      </g>
    </g>
  </g>
</svg>
